<svg viewBox="0 0 32 32" xmlns="http://www.w3.org/2000/svg">
  <path d="M20.4221621,-1.0658141e-14 C21.6363174,0.424403183 23.7177265,1.90981432 23.7177265,2.75862069 C23.7177265,3.22546419 23.2840996,3.22546419 22.9371981,3.22546419 C22.6336592,3.22546419 22.3734831,3.09814324 22.113307,3.09814324 C20.7951097,3.09814324 19.3266411,3.73546748 18.0885802,4.48850183 C18.2147713,4.54951839 18.3265959,4.61880692 18.415882,4.69478162 C23.6396031,5.87829407 27.5362319,10.489687 27.5362319,16 C27.5362319,16.1123441 27.5346113,16.2243155 27.5313918,16.3358927 C28.2980792,16.2131306 29.0633034,16.0848806 29.7451402,16.0848806 C30.3088551,16.0848806 31.1761089,16.3395225 31.9132746,16.5517241 C31.9566373,16.5517241 32,16.6790451 32,16.806366 C32,17.1034483 31.1761089,17.7824934 30.8292074,17.7824934 C30.5256686,17.7824934 30.2221298,17.6551724 29.9185909,17.6551724 C28.9216813,17.6551724 28.1682859,17.8374281 27.3126211,18.2583443 C26.5271685,22.1834932 23.7325058,25.3972183 20.0284298,26.8160401 C20.0162015,26.8323844 20.0024289,26.8485332 19.9885352,26.8647215 L20.0318979,26.8647215 C19.8584472,27.0769231 19.5115457,27.3740053 19.5115457,27.5437666 C19.5115457,27.6710875 19.598271,27.7984085 19.7283591,27.7984085 C19.9451725,27.7559682 20.2053487,27.6286472 20.4221621,27.6286472 C20.5088875,27.6286472 20.5522502,27.6710875 20.5956129,27.7559682 C20.5956129,28.3925729 17.2133232,30.2599469 17.2566859,30.2599469 C16.9097843,30.2599469 16.6929709,29.9204244 16.4327948,29.9204244 C15.4788156,30.1750663 13.9611215,32 10.8823706,32 C9.49476458,32 8.41069736,30.8965517 8.41069736,29.198939 C8.41069736,28.1382676 9.93074517,27.212843 10.5348488,26.3924858 C6.66174251,24.4936647 4,20.5529328 4,16 C4,10.4850936 7.90312791,5.87060657 13.1327791,4.69168742 C13.7113905,4.19007844 14.2832685,3.74079848 14.871738,3.43766578 C15.6089037,3.05570292 16.8664217,1.78249337 17.2566859,1.78249337 C17.9938516,1.74005305 18.3841158,1.23076923 18.904468,0.848806366 C19.2080068,0.551724138 19.9451725,0.25464191 20.4221621,-1.0658141e-14 Z M12.8454796,27.2396549 L12.7720521,27.3211064 C12.1183864,28.0765504 11.6195363,28.8748493 11.6195363,29.5384615 C11.6195363,29.7506631 11.662899,29.9628647 11.7496244,30.1750663 C12.1398886,30.0477454 12.5301528,29.7931034 12.9637797,29.7931034 C13.0593524,29.7931034 13.1783303,29.8389179 13.2691277,29.863229 C13.3542184,29.6697818 15.7002571,28.9697515 15.8690798,28.3501326 C15.9363962,28.1129484 16.1332953,27.847126 16.3728221,27.5844212 C16.1725313,27.5948981 15.9700039,27.6 15.7662671,27.6 C14.7580743,27.6 13.7794442,27.4749249 12.8454796,27.2396549 Z M17.9425578,23.0874405 L17.8520198,23.1497738 C17.6197522,23.3090264 17.4001163,23.4466435 17.2133232,23.5119363 C17.2133232,23.5119363 16.3027067,24.403183 15.7823544,24.7002653 C15.6539149,24.7561353 15.1591296,25.1016058 14.5530459,25.6050581 C14.9499932,25.6550781 15.3551851,25.68 15.7662671,25.68 C16.3476436,25.68 16.9172218,25.6302176 17.4708528,25.5347427 C17.4904572,25.425232 17.5239296,25.3110547 17.5684017,25.1929828 C17.5926045,25.1287251 17.6180206,25.0671424 17.6549438,24.9813861 C17.7523672,24.755115 17.7720874,24.7048292 17.7808833,24.6594451 C17.7999419,24.5593258 17.7999419,24.5593258 17.819045,24.4609454 C17.8526351,24.2879825 17.8665136,24.2149604 17.8828946,24.1225517 C17.9594858,23.6904848 17.9822326,23.3747847 17.9425578,23.0874405 Z M14.8839503,17.1759296 L14.8641256,17.1751568 C12.9318931,18.1971677 10.5591609,19.2254642 8.97441232,19.2254642 C8.97441232,19.2254642 7.4998299,19.1940899 6.3436703,18.7307741 C7.1423179,21.4118497 9.08687448,23.6108066 11.6186765,24.7761134 C12.3880983,23.8811481 13.4566494,22.9503216 14.3947484,22.3660477 C15.0187562,21.9690703 15.7550108,21.5940647 16.3773731,21.1461757 C16.0212534,20.5921818 15.9558428,19.8950044 16.0999108,19.11501 C16.1521965,18.8315468 16.2340309,18.5618031 16.3447283,18.3178755 C16.302621,18.3148549 16.2708927,18.3121975 16.2354654,18.3086619 C15.9217588,18.2773541 15.686009,18.2031631 15.487394,18.0183242 C15.3290363,17.8741749 15.2309516,17.7200194 15.1302937,17.5010576 C15.1059502,17.4473745 15.1059502,17.4473745 15.0847819,17.3997178 C14.9962029,17.2010978 14.9866778,17.1907202 14.9003322,17.1774804 L14.8839503,17.1759296 L14.8839503,17.1759296 Z M19.3814576,22.3236074 C19.2128551,22.3236074 19.0174951,22.3988989 18.8102401,22.5122066 C18.8217114,22.5522419 18.832984,22.5926511 18.843548,22.6343056 C18.9752251,23.1411934 18.9602536,23.622234 18.8422718,24.2877933 C18.8246791,24.3870376 18.8101774,24.4633384 18.7755894,24.6414403 C18.7639436,24.7014189 18.7594645,24.7244876 18.7533838,24.7562523 C18.8533954,24.6763342 18.948698,24.6005305 19.0345561,24.530504 C19.5549084,24.0636605 19.7283591,23.5119363 19.7283591,22.9177719 C19.7283591,22.66313 19.7283591,22.3236074 19.3814576,22.3236074 Z M18.1032641,17.37353 C18.1005558,17.3758792 18.0917033,17.385364 18.0655569,17.4153683 C18.0432642,17.4409864 18.0432642,17.4409864 18.0115306,17.4757415 C17.8860268,17.6089686 17.7847974,17.6403301 17.5710152,17.6794995 C17.5416202,17.6848852 17.4418042,17.7013578 17.4399793,17.7017934 C17.4159182,17.7076669 17.4159182,17.7076669 17.3909896,17.7138344 L17.3524948,17.7221171 C17.4894848,17.923346 17.494524,18.1617145 17.4041407,18.3887235 C17.3754551,18.4607709 17.3439304,18.5197265 17.2944647,18.6025886 C17.2458806,18.6839741 17.2437526,18.6876641 17.2380784,18.7003358 C17.157658,18.8761745 17.0973286,19.0741438 17.0580937,19.2868529 C16.9675066,19.7772982 16.9881308,20.1890152 17.1300289,20.5026907 L17.0398724,20.5835544 C17.6035874,19.9893899 18.9911934,19.9893899 19.3814576,19.2679045 C20.1752357,18.840613 20.8600347,18.6266436 20.9703725,17.747376 C20.7708644,17.6306247 20.5423471,17.5270266 20.2497252,17.4134375 L19.1863859,17.4134375 L19.0582591,17.3965241 C19.0337006,17.3899006 19.0337006,17.3899006 19.0095062,17.3833107 L18.9575167,17.3690735 L18.9575167,17.3690735 C18.429449,17.2241817 18.2746027,17.2226249 18.1032641,17.37353 Z M19.9451725,16.0424403 C19.5115457,16.0424403 19.0779188,16.127321 18.6442919,16.127321 C18.4708411,16.127321 18.3407531,16.127321 18.1673023,16.0848806 C17.795451,16.2870704 17.3743905,16.3255074 16.9603857,16.3653965 L16.9602861,16.3310129 C16.9608964,16.3765948 16.960085,16.413246 16.9577475,16.4793247 L16.9574243,16.4858837 C16.956183,16.5654164 16.9466789,16.626581 16.9273135,16.7162928 L16.9238439,16.7322703 C16.9137039,16.7788316 16.9121151,16.7893977 16.9111477,16.7808487 L16.9141234,16.7991127 L16.9141234,16.7991127 L16.915,16.804 L16.9389483,16.8068039 C16.9584672,16.8086953 16.9831432,16.8111807 17.0080085,16.810611 L17.009784,16.8105765 C17.0334423,16.8101601 17.0700169,16.8034181 17.1544374,16.7825823 C17.1789512,16.7765154 17.1789512,16.7765154 17.2037707,16.7704566 C17.2327817,16.7633002 17.3050788,16.750444 17.3518221,16.7424474 L17.372,16.739 C17.4037937,16.704095 17.4266985,16.6816251 17.4570928,16.6552726 C17.9601076,16.2121914 18.3886905,16.2165004 19.2186835,16.4442347 C19.2366277,16.449158 19.2419571,16.4506202 19.2522584,16.4534375 L20.3411322,16.4534375 L20.516022,16.4854629 C20.6063269,16.5197179 20.6922984,16.5534823 20.7744703,16.5871357 C20.6129985,16.2805203 20.3485867,16.0424403 19.9451725,16.0424403 Z M19.5878047,7.07975315 L19.5756,7.09956807 L19.5756,7.09956807 C19.5238061,7.17651371 19.4670624,7.23986033 19.4056821,7.29094882 C19.6414563,7.4267051 19.8385792,7.55450241 20.0321639,7.69865436 C20.3791257,7.9578812 20.62427,8.12505741 20.8776117,8.26734181 C20.8962861,8.27779358 20.9273552,8.29215398 20.9726094,8.31080419 C21.0088926,8.32575722 21.1577983,8.38386185 21.1799651,8.39273324 C21.500118,8.52086175 21.687132,8.62790374 21.8327267,8.83241533 C21.9487519,8.99634246 21.9901902,9.17659895 21.9901902,9.377125 C21.9901902,9.77826018 21.8697819,10.1546481 21.5269742,10.352358 C21.2124022,10.5322799 20.7683534,10.6018156 20.4448392,10.412825 C20.440877,10.5284877 20.4057635,10.6522309 20.3324423,10.7814421 C20.1514184,11.0955934 19.8571317,11.186242 19.469388,11.1882549 C19.403403,11.1885974 19.3468797,11.186605 19.2536897,11.1818004 C19.1929018,11.1786488 19.1648196,11.1773134 19.1444419,11.1768427 L19.1257065,11.176625 C19.0736748,11.176625 19.037283,11.1750072 18.9482467,11.1698956 C18.9167156,11.1680924 18.9167156,11.1680924 18.8881386,11.1666572 C18.8241595,11.1636566 18.786448,11.1644922 18.7746877,11.1664901 C18.7435393,11.1722832 18.6978655,11.2069368 18.6152465,11.3077603 C18.5414247,11.39716 18.482224,11.4670216 18.3492875,11.6225519 C18.283927,11.6990217 18.283927,11.6990217 18.2204126,11.7737542 C18.1949471,11.8038504 18.1949471,11.8038504 18.1697943,11.8332378 C18.1495516,11.8568349 17.9960964,12.0334644 17.9546475,12.0824471 C17.6940801,12.3903749 17.5982072,12.5742435 17.5897231,12.8122063 C17.5880785,12.8587539 17.5890214,12.9028991 17.5934403,13.0209648 C17.5968678,13.1127739 17.5981835,13.1584279 17.5984684,13.2156283 C17.5997074,13.4644364 17.5702603,13.6797968 17.491973,13.8612919 C18.0192021,13.7901034 18.5485604,13.7506631 19.0779188,13.7506631 C19.598271,13.7506631 20.0752606,13.7931034 20.5956129,13.8355438 C21.1159651,13.8355438 21.6796801,14.3023873 22.2867577,14.4297082 C22.7637473,14.5145889 22.80711,15.1511936 23.2407369,15.1511936 C24.4548922,15.2360743 24.2380787,16.5517241 25.4955967,16.5517241 L25.5729261,16.548059 C25.5832001,16.3666605 25.5884058,16.183929 25.5884058,16 C25.5884058,11.9890211 23.1142816,8.54859254 19.5878047,7.07975315 Z M8.92541691,13.0776946 L8.90936828,13.0875332 C8.68171417,13.2732095 8.45406005,13.4960212 8.45406005,13.8779841 C8.45406005,14.3023873 7.84698241,14.6419098 7.84698241,15.0238727 C7.84698241,15.4058355 8.15052123,16.2546419 8.49742274,16.2546419 C9.48829749,16.0632345 10.5105328,15.760563 11.5546996,15.4308385 C11.5480985,15.4209295 11.5438439,15.4092545 11.5398982,15.3974127 C11.3156785,15.2583971 11.1538019,15.0909817 11.0183713,14.8597799 C10.8096323,14.9744506 10.5689782,14.9645992 10.3558447,14.8544631 C10.1894137,14.7684604 10.0554716,14.6378854 9.90952709,14.4544719 C9.85333337,14.3838514 9.72118857,14.2031844 9.72212882,14.204179 C9.58347089,14.0569883 9.51522665,13.933529 9.40863219,13.6897756 L9.38853034,13.6439296 L9.38853034,13.6439296 C9.33591171,13.524783 9.3037545,13.4681169 9.26294137,13.4228152 C9.18350358,13.3348705 9.09491956,13.2449087 8.92541691,13.0776946 Z M14.2652438,7.09293009 L14.1600938,7.17657516 C13.6124986,7.60620359 12.9750917,8.13377926 12.7036035,8.48806366 C11.8363498,9.59151194 10.4487437,10.0159151 9.92839147,11.2891247 L9.97175415,11.331565 C9.92839147,11.331565 9.84166609,11.2891247 9.7983034,11.2891247 C9.62485265,11.5437666 9.4080392,11.7984085 9.23458845,12.0106101 L9.34092974,12.1252128 C9.38483788,12.1711228 9.43156486,12.2187196 9.48120572,12.2681938 C9.73847568,12.5204047 9.87200265,12.6534474 9.99073615,12.7848966 C10.0629571,12.8650593 10.1183883,12.9427249 10.1696455,13.0331781 C10.2978613,12.8862238 10.5021234,12.8261838 10.699357,12.8667777 C10.8085634,12.8892542 10.9014328,12.9348211 11.0031701,13.0002745 C11.1133629,13.0711678 11.249656,13.1816278 11.3178922,13.2552678 C11.4501174,13.41043 11.540085,13.5843406 11.63051,13.8201853 C11.6530114,13.8788731 11.7205863,14.065999 11.7188867,14.0613981 C11.8598768,14.4432142 11.9388712,14.539333 12.1987207,14.6586299 L12.5133749,14.8030876 L12.4781227,15.1361008 L12.4781227,15.1361008 C12.4829543,15.091415 12.4981982,15.0871705 12.5483189,15.1129522 C12.6979035,15.065732 12.8469046,15.0181408 12.9962543,14.970774 C12.9942993,14.9009537 12.9836294,14.805713 12.9653985,14.6895301 C12.9568619,14.635128 12.9469567,14.5774157 12.9343769,14.5078611 C12.9066201,14.3575554 12.8921479,14.2788757 12.8820263,14.2183829 C12.860829,14.0916952 12.8517841,14.0118688 12.8567478,13.9277651 C12.8957496,13.3044122 13.3490707,12.6904928 13.949617,12.52831 C14.4918981,12.3818623 14.9517979,12.319334 15.3925705,12.3652698 C15.9247709,12.4205693 16.2096663,12.6237852 16.4511729,13.0294497 C16.4696954,13.0605623 16.5457185,13.1931385 16.5662295,13.2274501 C16.5858321,13.2602423 16.6045169,13.2901599 16.623101,13.3182991 L16.6243289,13.2729583 L16.6243289,13.2729583 L16.624567,13.2203405 C16.6243489,13.1765401 16.6233661,13.1424356 16.6201894,13.0563584 C16.6148491,12.9136767 16.613638,12.8569715 16.6164055,12.7786414 C16.6341354,12.2813517 16.8204257,11.9240775 17.2067517,11.4675332 C17.253086,11.4127772 17.4095843,11.232645 17.4261174,11.2133723 C17.4489665,11.1866757 17.4489665,11.1866757 17.4721942,11.1592229 C17.5386777,11.0809922 17.5386777,11.0809922 17.6044826,11.0040036 C17.733877,10.8526173 17.7907231,10.7855345 17.858758,10.7031482 C18.0719563,10.4429592 18.2862101,10.2804005 18.600146,10.2220522 C18.705425,10.2038215 18.8041761,10.2016334 18.9344244,10.207742 C18.971305,10.2095959 18.971305,10.2095959 19.0048738,10.2115197 C19.0094447,10.2117822 19.0138255,10.2120322 19.0180289,10.2122704 C19.0016971,10.1756001 18.9879839,10.1350908 18.9770503,10.0901798 C18.8439045,9.52999314 19.1918482,9.2539912 19.6865952,9.17001373 C19.7251026,9.16347756 19.7613737,9.15823662 19.8193626,9.15021816 C19.8412133,9.14708653 19.8412133,9.14708653 19.8594919,9.14424393 C19.8894756,9.13936122 19.8894756,9.13936122 19.9265228,9.13308594 C20.0050035,9.11988002 20.0558227,9.11251752 20.1152794,9.10718193 C20.2227501,9.0975376 20.3254827,9.09944066 20.4225067,9.11618751 C20.4136036,9.11146615 20.4048152,9.1066794 20.3961058,9.10180481 C20.0974791,8.93408768 19.8218368,8.74611334 19.4444927,8.46418606 C19.1763692,8.26452986 18.8852925,8.09361517 18.4321619,7.85817656 C18.3694164,7.82601501 18.2997078,7.7880337 18.1756481,7.71999876 C17.9764066,7.61212979 17.8508497,7.55750798 17.7488742,7.53720798 C17.7453548,7.54955524 17.7414178,7.5631144 17.736947,7.57838463 C17.7215339,7.63102821 17.7173831,7.64902144 17.7168977,7.64291111 C17.7175921,7.65156553 17.7253569,7.67883997 17.7541002,7.75691636 C17.7638472,7.78336638 17.7638472,7.78336638 17.7747059,7.81353264 C17.7862293,7.84634962 17.7862293,7.84634962 17.7985667,7.88459792 C17.9127445,8.25253896 17.9135663,8.51986827 17.6482556,8.79698905 C17.3548269,9.09978386 16.8197157,9.10978323 16.4877237,8.86653882 C16.3849489,8.78999607 16.3200802,8.71902776 16.223898,8.59630045 L16.2083519,8.57643589 C16.1558792,8.50940889 16.1408573,8.49426534 16.1385946,8.49309317 C16.0220083,8.43249856 15.9708061,8.4229638 15.8453508,8.43804465 C15.4756452,8.48240933 15.2445468,8.48826182 14.9937569,8.4259127 C14.577122,8.32510869 14.2278603,7.89635246 14.2203386,7.47678574 C14.2169891,7.34307101 14.2300545,7.2129733 14.2652438,7.09293009 Z M14.2069591,13.45419 C14.0298091,13.5020309 13.8433533,13.7545404 13.8289169,13.9851649 C13.8291137,13.9820848 13.8360884,14.0237488 13.8931724,14.3393706 C13.906955,14.415576 13.918034,14.4801272 13.9278665,14.5427879 C13.9351988,14.5895155 13.9416931,14.6342417 13.9472951,14.6771881 C14.0887705,14.6331656 14.2317338,14.5908424 14.3749378,14.5493621 L14.3080443,14.6276168 C14.4276935,14.4864581 14.4920766,14.4185236 14.5986736,14.3387762 C14.9200057,14.1033223 15.3450535,14.0517491 15.7185288,14.1939484 C15.8219174,14.1679517 15.925951,14.1440239 16.0300649,14.1209263 C15.9856594,14.0803988 15.9442793,14.0324443 15.9057047,13.981746 C15.8410296,13.8963962 15.7851277,13.8117958 15.7271506,13.7148092 C15.7008449,13.6708037 15.624248,13.5372271 15.6112089,13.5153249 C15.5175357,13.3579798 15.4938955,13.3411172 15.2903227,13.3199645 C14.992728,13.2889502 14.6425068,13.3365665 14.2069591,13.45419 Z M16.4812062,6.62523258 C16.4819139,6.66496106 16.4790538,6.70441843 16.4718571,6.7465323 C16.4489184,7.06637622 16.2339642,7.27649819 15.9549303,7.36620333 C15.8785692,7.39075228 15.8196649,7.40300538 15.7566918,7.40970762 L15.656,7.416 C15.6484689,7.41724495 15.64652,7.41743862 15.6446022,7.41762819 L15.65,7.416 L15.6468575,7.41680287 L15.6416179,7.41832517 C15.6010581,7.42193229 15.5734654,7.42412281 15.5487641,7.42509292 C15.4983704,7.42898891 15.4577569,7.43046924 15.3718021,7.43250677 C15.3053407,7.43407933 15.2792153,7.43487126 15.2468127,7.43654484 C15.2268381,7.43757651 15.2090525,7.43886021 15.19363,7.4401702 C15.1938409,7.4448903 15.1938761,7.45034668 15.194027,7.45644326 C15.1937797,7.44266999 15.2375491,7.49640167 15.2289071,7.49432064 C15.3288611,7.51916635 15.4742996,7.51548316 15.7275554,7.48509248 C16.0515284,7.44614799 16.3021288,7.4928143 16.5921548,7.64355318 C16.6520833,7.67458107 16.7020508,7.70633956 16.7479275,7.74258013 C16.7450386,7.71284591 16.7434398,7.68178999 16.7429801,7.648 C16.7429801,7.53074897 16.7595125,7.45465522 16.8012225,7.31219372 C16.8146809,7.26622619 16.8189785,7.25023716 16.8243043,7.2237055 C16.8497628,7.11004047 16.8938618,7.00550085 16.9549478,6.91504673 L16.9268822,6.8897902 L16.9268822,6.8897902 C16.8692091,6.83439874 16.8233936,6.77746792 16.7784712,6.71097776 C16.7532527,6.67267353 16.7503127,6.66820794 16.7367296,6.64677803 C16.7213778,6.64529498 16.7029864,6.64381853 16.6804911,6.64224673 C16.667164,6.64132647 16.667164,6.64132647 16.6530126,6.64037169 C16.5946439,6.63645852 16.5628618,6.63399623 16.5273095,6.63016428 C16.5020988,6.6275272 16.4992205,6.62722613 16.4812062,6.62523258 Z"></path>
</svg>
