<svg viewBox="0 0 80 80" xmlns="http://www.w3.org/2000/svg">
  <circle fill="#3182ce" cx="40" cy="40" r="29"></circle>
  <path d="M43.3699408,66.6159891 L43.4031901,66.6717291 L43.447263,66.7294597 C43.618451,66.9311852 44.0984603,67.2726477 45.1265234,66.6159891 C46.6203484,65.6625277 49.1246545,62.9474784 50.1270257,62.3565559 C52.0328286,61.2274148 53.8883508,59.8587105 55.6692627,58.231278 C57.4485528,56.6038455 56.8046347,55.4635248 57.6967126,53.8392865 C58.5855466,52.211854 59.7371382,52.2853201 61.2634024,50.9118245 L61.4996533,50.6913555 C62.5934069,49.6307316 61.7503344,49.7483713 60.353721,49.2793193 L60.068018,49.1773871 C58.4201067,48.55612 58.7136815,48.7813094 57.6967126,46.6523913 L57.4913423,46.2325038 L57.2933283,45.851792 C56.4779341,44.3443582 55.7479558,43.8055547 53.7764355,43.5907739 L52.4897992,43.4612336 L52.1721565,43.4216888 C51.4643489,43.317107 51.3625118,43.1466345 50.9380057,42.3929581 C50.3021974,41.2654141 47.7216592,42.6995989 46.072126,43.3256574 C44.4161049,43.9517158 44.8232169,45.3156288 44.3155434,45.1878618 L44.1176576,45.1382907 L43.8506768,45.0647019 C43.2151783,44.8787705 42.2272881,44.5095017 41.2451733,43.7393031 C39.9735567,42.736332 42.1907759,41.9537589 42.8282062,41.3292976 C43.4640145,40.7016421 41.6279558,41.0434189 40.9905256,40.664909 C40.3530954,40.2911905 39.2128575,41.4171374 38.1958887,40.4125692 C37.1772979,39.4111951 37.8131061,37.9083355 37.6882152,36.6562186 C37.5600804,35.4025047 39.3393704,35.153359 40.4844741,34.9026162 C41.5839758,34.663053 42.4480413,34.8871414 42.5128814,36.2393503 L42.5167899,36.4070729 C42.5167899,37.8643913 43.8329932,38.3801055 43.5652141,36.8096004 L43.5353807,36.6562186 C43.1707923,34.9773321 43.8524141,34.4484334 44.3595062,33.6382797 L44.4274586,33.5259265 C44.9351321,32.6507223 45.8255881,31.3954113 46.9690698,29.5188331 C48.1141735,27.6406578 48.8781166,28.515862 50.2762461,28.6484203 C51.6776194,28.7841727 52.057158,28.515862 53.0741269,28.6420319 C54.0878518,28.7682018 53.0741269,27.389915 53.4569094,26.0116283 C53.83807,24.6349385 55.2361994,24.8840842 56.6375728,25.260997 C58.0373242,25.6363126 55.2361994,23.5057975 54.728526,22.3798505 C54.2176086,21.2523065 52.8211011,22.3798505 51.9338891,20.5016753 C51.0369452,18.6219029 49.7864142,17.4081161 48.6413105,17.2388248 C47.4945848,17.0695335 49.0046295,19.624874 48.1141735,21.0031608 C47.2220956,22.3798505 45.8531614,22.1642437 44.4501661,22.1642437 C43.0520366,22.1642437 41.7560907,21.0031608 42.7730595,19.2479613 C43.7884064,17.495956 45.7315144,17.678024 46.7484833,16.1751643 C47.7428528,14.7072632 43.3331243,14.8059561 41.5916229,14.3437697 L41.4771136,14.3113629 C39.8227145,13.8098773 37.8358136,13.8162656 36.1830364,15.0667854 C34.5286373,16.3173052 30.9911428,16.7085917 29.5930134,17.2100773 C28.1948839,17.7099657 27.9434801,16.3795916 27.6904544,15.3766204 C27.5377104,14.7769296 26.6806046,14.7127804 25.5248286,14.8660438 C22.2387582,16.7621162 19.35982,19.2841697 17.0502831,22.2690847 L17.0828366,22.5060205 C17.3391063,24.1350501 19.373044,22.3798505 19.7542046,22.0029378 C20.1353652,21.6276222 22.04279,22.1291078 22.2958157,23.5057975 C22.5520854,24.8824872 22.4239506,26.388541 21.9162771,27.6406578 C21.4258445,28.8448621 23.0591159,30.5155737 24.0888774,32.2035633 L24.2048626,32.3983825 C25.1451002,34.0170924 26.1917538,34.1416085 26.7477886,34.1511867 L26.8762305,34.1519849 C27.366398,34.1519849 30.111001,35.203108 30.1843698,36.5147272 L30.1817848,36.6562186 C30.0552719,38.0345054 32.8531528,39.2850252 33.9982565,40.1618264 C35.1417382,41.0402247 35.8667543,41.9042492 37.3524695,42.1581862 C38.8398068,42.410526 40.5785478,44.8045607 41.3408689,45.0553035 C41.8656389,45.2266656 42.7189346,45.988913 43.3214346,46.3504311 L43.5142831,46.456 L43.1216039,46.9563086 C42.348714,47.9600068 41.318224,49.4296069 41.2147184,50.2512124 L41.2062463,50.3783972 C41.2062463,51.6337082 42.8687552,53.6077088 43.5045635,54.1060002 C44.1371278,54.6058887 45.9634547,54.9843985 46.3429933,56.2349182 C46.7257758,57.4870351 46.0753699,61.7017499 44.9335101,62.8276968 C43.7851625,63.9536437 43.3699408,66.6159891 43.3699408,66.6159891 Z" fill="#48bb78"></path>
  <path d="M79.7862839,41.3793103 C79.8931419,41.3793103 80,41.6976127 80,42.0159151 C80,42.7586207 77.969697,44.4562334 77.1148325,44.4562334 C76.3668262,44.4562334 75.6188198,44.137931 74.8708134,44.137931 C70.5964912,44.137931 68.138756,45.5172414 63.0095694,49.0185676 C62.5821372,49.867374 61.4066986,54.3236074 60.23126,54.3236074 C59.9106858,54.3236074 59.3763955,54.1114058 59.0558214,54.1114058 C58.6283892,54.1114058 54.2472089,57.5066313 54.2472089,59.4164456 C54.2472089,59.5225464 54.2472089,59.8408488 54.460925,59.9469496 C53.6060606,62.2811671 52.6443381,64.5092838 50.400319,67.1618037 L50.507177,67.1618037 C50.0797448,67.6923077 49.2248804,68.4350133 49.2248804,68.8594164 C49.2248804,69.1777188 49.4385965,69.4960212 49.7591707,69.4960212 C50.2934609,69.3899204 50.9346093,69.071618 51.4688995,69.071618 C51.6826156,69.071618 51.7894737,69.1777188 51.8963317,69.3899204 C51.8963317,70.9814324 43.5614035,75.6498674 43.6682616,75.6498674 C42.8133971,75.6498674 42.2791069,74.801061 41.6379585,74.801061 C39.2870813,75.4376658 35.5470494,80 27.9601276,80 C24.5406699,80 21.8692185,77.2413793 21.8692185,72.9973475 C21.8692185,70.0265252 26.5709729,67.4801061 27.5326954,65.2519894 C28.814992,62.3872679 33.0893142,58.1432361 36.61563,55.9151194 C38.7527911,54.535809 41.4242424,53.2625995 43.1339713,51.4588859 C44.523126,49.9734748 47.9425837,49.9734748 48.9043062,48.1697613 C51.0414673,47.0026525 52.8580542,46.4721485 52.8580542,43.7135279 C52.8580542,42.3342175 52.2169059,40.1061008 50.2934609,40.1061008 C49.2248804,40.1061008 48.1562998,40.3183024 47.0877193,40.3183024 C46.6602871,40.3183024 46.3397129,40.3183024 45.9122807,40.2122016 C43.9888357,41.2732095 41.5311005,40.530504 39.8213716,41.8037135 C34.7990431,44.668435 27.7464115,48.0636605 23.2583732,48.0636605 C23.2583732,48.0636605 13.4274322,47.8514589 13.4274322,42.9708223 C13.4274322,42.6525199 13.5342903,42.2281167 13.5342903,41.9098143 C13.5342903,40.7427056 13,39.7877984 13,38.4084881 C13,36.0742706 15.2440191,35.6498674 15.4577352,33.5278515 C15.4577352,30.3448276 17.1674641,28.1167109 19.6251994,26.2068966 C20.2663477,25.7824934 20.6937799,25.1458886 21.0143541,24.403183 C21.7623604,22.5994695 24.6475279,21.6445623 24.6475279,20.3713528 C24.6475279,20.1591512 24.5406699,19.9469496 24.4338118,19.6286472 C24.6475279,19.204244 24.861244,18.5676393 25.2886762,18.3554377 C29.9904306,15.7029178 33.7304625,10.7161804 37.7910686,8.59416446 C39.6076555,7.63925729 42.7065391,4.45623342 43.6682616,4.45623342 C45.4848485,4.35013263 46.446571,3.07692308 47.7288676,2.12201592 C48.476874,1.37931034 50.2934609,0.636604775 51.4688995,0 C54.460925,1.06100796 59.5901116,4.77453581 59.5901116,6.89655172 C59.5901116,8.06366048 58.5215311,8.06366048 57.6666667,8.06366048 C56.9186603,8.06366048 56.277512,7.74535809 55.6363636,7.74535809 C51.3620415,7.74535809 46.446571,10.5039788 43.0271132,13.0503979 C41.4242424,14.2175066 40.1419458,15.4907162 38.3253589,16.127321 C38.3253589,16.2334218 33.7304625,19.5225464 32.4481659,21.2201592 C30.3110048,23.9787798 26.891547,25.0397878 25.6092504,28.2228117 L25.7161085,28.3289125 C25.6092504,28.3289125 25.3955343,28.2228117 25.2886762,28.2228117 C24.861244,28.8594164 24.3269537,29.4960212 23.8995215,30.0265252 C24.0063796,30.4509284 24.2200957,30.8753316 24.2200957,31.2997347 C24.2200957,32.4668435 21.9760766,32.7851459 21.9760766,34.6949602 C21.9760766,35.7559682 20.4800638,36.6047745 20.4800638,37.5596817 C20.4800638,38.5145889 21.2280702,40.6366048 22.0829346,40.6366048 C30.2041467,39.0450928 39.1802233,34.3766578 48.1562998,34.3766578 C49.4385965,34.3766578 50.6140351,34.4827586 51.8963317,34.5888594 C53.1786284,34.5888594 54.5677831,35.7559682 56.0637959,36.0742706 C57.2392344,36.2864721 57.3460925,37.8779841 58.414673,37.8779841 C61.4066986,38.0901857 60.8724083,41.3793103 63.9712919,41.3793103 C67.2838915,41.3793103 71.2376396,40.2122016 74.4433812,40.2122016 C75.8325359,40.2122016 77.969697,40.8488064 79.7862839,41.3793103 Z M33.8417789,74.6580726 C34.0514669,74.1744544 39.8327764,72.4243786 40.2488038,70.8753316 C40.7830941,68.9655172 44.6299841,66.3129973 44.6299841,65.5702918 C44.6299841,63.9787798 46.7671451,62.3872679 48.0494418,61.3262599 C49.3317384,60.1591512 49.7591707,58.7798408 49.7591707,57.2944297 C49.7591707,56.6578249 49.7591707,55.8090186 48.9043062,55.8090186 C47.4082935,55.8090186 45.0574163,58.2493369 43.5614035,58.7798408 C43.5614035,58.7798408 41.3173844,61.0079576 40.0350877,61.7506631 C39.0733652,62.1750663 29.7767145,69.2838196 29.7767145,73.8461538 C29.7767145,74.3766578 29.8835726,74.9071618 30.0972887,75.4376658 C31.0590112,75.1193634 32.0207337,74.4827586 33.0893142,74.4827586 C33.3248328,74.4827586 33.6180282,74.5972946 33.8417789,74.6580726 L33.8417789,74.6580726 Z" fill="#e53e3e"></path>
</svg>
