<svg viewBox="0 0 96 96" xmlns="http://www.w3.org/2000/svg">
  <g fill="none" stroke="inherit" stroke-width="2">
    <path d="M76,48 C76,32.5337209 63.4635585,20 47.9954438,20 C32.5350813,20 20,32.5350813 20,48 C20,63.4619603 32.5366791,76 47.9954438,76 C63.4619604,76 76,63.4633208 76,48 Z" stroke-width="4"></path>
    <path d="M68.3860938,56.4915625 C67.9103125,56.1335938 66.940625,55.6985938 66.4014063,55.6170313 C65.4815625,55.4765625 64.983125,55.7982813 64.5526563,54.8240625 C64.1946875,54.0129687 63.9273438,53.5054688 63.2884375,52.8348438 C62.0559375,51.5479688 60.94125,50.9770313 59.2692188,50.3335938 L56.4235938,50.3335938 C55.2273438,50.0073438 54.0265625,49.5814063 52.9617188,50.5329688 C52.8484375,50.6326563 52.7532813,50.7595313 52.6490625,50.8728125 C52.53125,50.9996875 52.0010938,51.045 51.8289063,51.0903125 C51.58875,51.1492188 51.335,51.2217188 51.08125,51.22625 C50.6915625,51.2353125 50.156875,51.1310938 49.8895313,50.8229688 C49.7354688,50.64625 49.6448438,50.2973438 49.6221875,50.06625 C49.595,49.758125 49.7264063,49.4907813 49.7309375,49.19625 C49.74,48.9334375 49.7535938,48.6298438 49.6810938,48.380625 C49.5315625,47.8595313 48.9425,47.71 48.4848438,47.6103125 C48.2129688,47.5514063 47.945625,47.510625 47.6692188,47.42 C46.9759375,47.184375 47.3339063,46.2373438 47.6284375,45.8159375 C47.9275,45.3854688 48.3579688,45.0864063 47.6375,44.6921875 C47.0575,44.3795313 46.3460938,44.429375 45.8340625,44.81 C45.3446875,45.1815625 45.0229688,45.9020313 44.429375,46.0878125 C43.7496875,46.3053125 43.0110938,45.806875 42.3676563,45.71625 C42.4310938,44.8598438 42.000625,43.2829688 42.0232813,42.8932813 C42.0867188,41.8646875 42.8434375,40.75 43.8357813,40.478125 C44.828125,40.20625 45.9201563,39.9978125 46.94875,40.1065625 C48.5392188,40.2742188 48.47125,41.1260938 49.3004688,42.23625 C49.5723438,42.59875 50.0934375,43.0246875 50.5646875,42.7754688 C51.5660938,42.2498438 51.2579688,40.8995313 51.2896875,39.98875 C51.3395313,38.5704688 52.2503125,37.7140625 53.1203125,36.6673438 C53.4420313,36.2821875 53.7682813,35.9015625 54.0854688,35.511875 C54.3709375,35.1584375 54.70625,34.8276563 55.1865625,34.7370313 C55.521875,34.678125 55.9342188,34.7415625 56.2740625,34.7415625 C56.826875,34.7415625 57.8826563,34.9273438 58.204375,34.3609375 C58.5034375,33.82625 58.0639063,33.4592188 57.6198438,33.2870313 C57.4385938,33.2145313 57.1304687,33.1782813 57.0760938,32.9517188 C56.8903125,32.15875 57.7421875,32.1315625 58.2723438,32.0454688 C58.7526563,31.9684375 59.3734375,31.8098438 59.7404688,32.2539063 C59.9035938,32.4532813 59.8220313,32.6934375 60.0078125,32.8973438 C60.3476563,33.264375 61.2221875,33.0559375 61.5892188,32.8429688 C62.0151563,32.59375 62.1329688,31.8959375 62.1329688,31.4428125 C62.1329688,31.2071875 62.0967188,30.9625 61.9607813,30.7676563 C61.5982813,30.2510938 60.5334375,30.0154688 59.99875,29.711875 C59.219375,29.2678125 58.494375,28.7421875 57.7829688,28.2029688 C56.9492188,27.573125 56.0384375,27.065625 55.1185938,26.5807813 C54.325625,26.1684375 53.3423438,25.4842188 52.4134375,25.6473438 C52.0509375,25.70625 51.8515625,25.9690625 51.7745313,26.3179688 C51.7246875,26.5807813 51.6023438,26.848125 51.6023438,27.12 C51.606875,27.4507813 51.7609375,27.754375 51.8560938,28.0625 C51.9739063,28.4476563 52.0690625,28.841875 51.7654688,29.1635938 C51.4754688,29.4671875 50.8320313,29.458125 50.4967188,29.2089063 C50.0889063,28.9007813 49.92125,28.406875 49.4726563,28.17125 C48.9742188,27.9084375 48.6026563,27.8359375 48.0453125,27.9039063 C47.5242188,27.9673438 46.8989063,28.0307813 46.3778125,27.899375 C45.879375,27.7770313 45.3945313,27.174375 45.3854688,26.6623438 C45.3764063,26.2953125 45.4579688,25.7832813 45.806875,25.579375 C46.2192188,25.34375 46.9034375,25.4026563 47.365625,25.3664063 C47.4607813,25.361875 47.5514063,25.3528125 47.6375,25.34375 C47.6510938,25.3392188 48.5392188,25.3664063 48.5392188,24.7229687 C48.6117188,24.4239063 48.3896875,24.075 48.4984375,23.7940625 C48.58,23.585625 48.8745313,23.4542187 49.069375,23.3907812 C49.3729688,23.295625 49.685625,23.35 49.99375,23.3817188 C50.2429688,23.4089063 50.5103125,23.4089063 50.755,23.45875 C51.3214063,23.5765625 51.3395313,24.020625 51.6929688,24.365 C52.2004688,24.8407813 52.5085938,24.6323438 53.1701563,24.7229687 C53.8815625,24.818125 55.7484375,26.0415625 56.3828125,25.0854688 C57.0896875,24.020625 55.1865625,23.2367188 54.5975,23.041875 C53.6685938,22.73375 52.7442188,22.1039063 52.1370313,21.3335937 C51.8379688,20.9529688 51.6023438,20.4907812 51.6114063,19.9923437 C51.625,19.5890625 51.6114063,18.9682812 51.9875,18.71 C52.078125,18.6510937 52.1778125,18.6148437 52.2820313,18.6103125 C52.4678125,18.5921875 52.6717188,18.583125 52.8257813,18.67375 C53.0523438,18.8142187 53.238125,19.0860937 53.3559375,19.3171875 C53.6051563,19.815625 53.5190625,20.2914062 53.8770313,20.7898437 C54.235,21.2746875 54.7017188,21.6689063 55.1367188,22.0767187 C56.265,23.1279688 57.5110938,24.0614063 58.9565625,24.6142188 C59.7359375,24.9132813 60.5560938,25.144375 61.2946875,25.5521875 C62.1329688,26.0234375 62.4410938,26.630625 62.9984375,27.3510938 C64.2020069,28.8965466 67.197056,28.8653899 68.0215747,27.323795"></path>
    <path d="M25.470625,29.62125 C26.4448438,29.748125 27.1970313,30.690625 27.9764063,31.1935938 C28.6425,31.615 29.4490625,32.05 29.566875,32.8610938 C29.711875,33.8398438 29.530625,34.931875 29.5578125,35.9242188 C29.6121875,37.8953125 31.65125,39.3951563 32.865625,40.7590625 C33.4048438,41.36625 33.4501563,42.1229688 33.9803125,42.6939063 C34.2748438,43.015625 35.1675,44.6151563 35.82,44.0215625 C36.3410938,43.5503125 34.9771875,42.109375 35.0859375,41.4478125 C35.1448438,41.0445313 36.0601563,41.8510938 36.1145313,41.91 C36.4951563,42.363125 36.6945313,43.015625 36.8939063,43.5639063 C37.324375,44.7465625 37.705,45.2721875 38.6973438,45.734375 C38.6384375,46.3007813 39.2184375,46.6814063 39.735,46.9759375 C40.3014063,47.2976563 40.9176563,47.3067188 41.5203125,47.5740625 C42.09125,47.8323438 42.7165625,47.8278125 43.2467188,48.0860938 C44.0351563,48.4667188 43.505,48.8428125 43.9490625,49.4092188 C44.4429688,50.0435938 45.3809375,49.6539063 46.0470313,49.758125 C47.474375,49.9801563 47.2342188,51.3440625 48.1223438,52.1642188 C48.6071875,52.621875 49.4364063,52.5720313 50.048125,52.64 C50.2882813,52.6671875 50.6009375,52.6717188 50.79125,52.8439063 C51.2670313,53.2653125 50.7096875,53.8453125 50.5284375,54.2576563 C50.2792188,54.8104688 50.1070313,55.4040625 49.9982813,56.0021875 C49.6946875,57.6696875 49.758125,59.5320313 50.9725,60.8234375 C52.295625,62.2326563 53.9132813,62.8715625 54.41625,64.8834375 C54.8467188,66.5645313 54.4479688,68.209375 54.1398438,69.8678125 C53.9495313,70.8646875 52.585625,72.595625 53.9404688,73.3296875 C55.1185938,73.9685938 57.1214063,72.2104688 57.8917188,71.5398438 C59.70875,69.9539063 62.1103125,68.98875 63.3065625,66.7639063 C63.8729688,65.708125 64.3759375,64.5934375 65.3682813,63.8639063 C65.889375,63.47875 66.4920313,63.225 67.049375,62.9032813 C68.2320313,62.228125 68.9389063,60.7917188 69.4690625,59.6"></path>
    <path d="M76.3520312,42.9839062 C74.6754687,44.6740625 73.9957812,47.8640625 75.3914062,49.9167187 C75.9079687,50.6779687 76.565,51.3123437 77.4259375,51.5117187"></path>
  </g>
  <path d="M87.7862839,49.3793103 C87.8931419,49.3793103 88,49.6976127 88,50.0159151 C88,50.7586207 85.969697,52.4562334 85.1148325,52.4562334 C84.3668262,52.4562334 83.6188198,52.137931 82.8708134,52.137931 C78.5964912,52.137931 76.138756,53.5172414 71.0095694,57.0185676 C70.5821372,57.867374 69.4066986,62.3236074 68.23126,62.3236074 C67.9106858,62.3236074 67.3763955,62.1114058 67.0558214,62.1114058 C66.6283892,62.1114058 62.2472089,65.5066313 62.2472089,67.4164456 C62.2472089,67.5225464 62.2472089,67.8408488 62.460925,67.9469496 C61.6060606,70.2811671 60.6443381,72.5092838 58.400319,75.1618037 L58.507177,75.1618037 C58.0797448,75.6923077 57.2248804,76.4350133 57.2248804,76.8594164 C57.2248804,77.1777188 57.4385965,77.4960212 57.7591707,77.4960212 C58.2934609,77.3899204 58.9346093,77.071618 59.4688995,77.071618 C59.6826156,77.071618 59.7894737,77.1777188 59.8963317,77.3899204 C59.8963317,78.9814324 51.5614035,83.6498674 51.6682616,83.6498674 C50.8133971,83.6498674 50.2791069,82.801061 49.6379585,82.801061 C47.2870813,83.4376658 43.5470494,88 35.9601276,88 C32.5406699,88 29.8692185,85.2413793 29.8692185,80.9973475 C29.8692185,78.0265252 34.5709729,75.4801061 35.5326954,73.2519894 C36.814992,70.3872679 41.0893142,66.1432361 44.61563,63.9151194 C46.7527911,62.535809 49.4242424,61.2625995 51.1339713,59.4588859 C52.523126,57.9734748 55.9425837,57.9734748 56.9043062,56.1697613 C59.0414673,55.0026525 60.8580542,54.4721485 60.8580542,51.7135279 C60.8580542,50.3342175 60.2169059,48.1061008 58.2934609,48.1061008 C57.2248804,48.1061008 56.1562998,48.3183024 55.0877193,48.3183024 C54.6602871,48.3183024 54.3397129,48.3183024 53.9122807,48.2122016 C51.9888357,49.2732095 49.5311005,48.530504 47.8213716,49.8037135 C42.7990431,52.668435 35.7464115,56.0636605 31.2583732,56.0636605 C31.2583732,56.0636605 21.4274322,55.8514589 21.4274322,50.9708223 C21.4274322,50.6525199 21.5342903,50.2281167 21.5342903,49.9098143 C21.5342903,48.7427056 21,47.7877984 21,46.4084881 C21,44.0742706 23.2440191,43.6498674 23.4577352,41.5278515 C23.4577352,38.3448276 25.1674641,36.1167109 27.6251994,34.2068966 C28.2663477,33.7824934 28.6937799,33.1458886 29.0143541,32.403183 C29.7623604,30.5994695 32.6475279,29.6445623 32.6475279,28.3713528 C32.6475279,28.1591512 32.5406699,27.9469496 32.4338118,27.6286472 C32.6475279,27.204244 32.861244,26.5676393 33.2886762,26.3554377 C37.9904306,23.7029178 41.7304625,18.7161804 45.7910686,16.5941645 C47.6076555,15.6392573 50.7065391,12.4562334 51.6682616,12.4562334 C53.4848485,12.3501326 54.446571,11.0769231 55.7288676,10.1220159 C56.476874,9.37931034 58.2934609,8.63660477 59.4688995,8 C62.460925,9.06100796 67.5901116,12.7745358 67.5901116,14.8965517 C67.5901116,16.0636605 66.5215311,16.0636605 65.6666667,16.0636605 C64.9186603,16.0636605 64.277512,15.7453581 63.6363636,15.7453581 C59.3620415,15.7453581 54.446571,18.5039788 51.0271132,21.0503979 C49.4242424,22.2175066 48.1419458,23.4907162 46.3253589,24.127321 C46.3253589,24.2334218 41.7304625,27.5225464 40.4481659,29.2201592 C38.3110048,31.9787798 34.891547,33.0397878 33.6092504,36.2228117 L33.7161085,36.3289125 C33.6092504,36.3289125 33.3955343,36.2228117 33.2886762,36.2228117 C32.861244,36.8594164 32.3269537,37.4960212 31.8995215,38.0265252 C32.0063796,38.4509284 32.2200957,38.8753316 32.2200957,39.2997347 C32.2200957,40.4668435 29.9760766,40.7851459 29.9760766,42.6949602 C29.9760766,43.7559682 28.4800638,44.6047745 28.4800638,45.5596817 C28.4800638,46.5145889 29.2280702,48.6366048 30.0829346,48.6366048 C38.2041467,47.0450928 47.1802233,42.3766578 56.1562998,42.3766578 C57.4385965,42.3766578 58.6140351,42.4827586 59.8963317,42.5888594 C61.1786284,42.5888594 62.5677831,43.7559682 64.0637959,44.0742706 C65.2392344,44.2864721 65.3460925,45.8779841 66.414673,45.8779841 C69.4066986,46.0901857 68.8724083,49.3793103 71.9712919,49.3793103 C75.2838915,49.3793103 79.2376396,48.2122016 82.4433812,48.2122016 C83.8325359,48.2122016 85.969697,48.8488064 87.7862839,49.3793103 Z M52.7902711,78.132626 L52.8437002,78.132626 C52.7368421,78.132626 52.7368421,78.2387268 52.7368421,78.2387268 L52.8437002,78.3448276 C52.9505582,78.3448276 52.9505582,78.2387268 52.9505582,78.132626 L53.0574163,78.132626 C53.0574163,78.0265252 52.9505582,78.0265252 52.9505582,78.0265252 L52.8437002,78.132626 L52.7902711,78.132626 Z M41.8417789,82.6580726 C42.0514669,82.1744544 47.8327764,80.4243786 48.2488038,78.8753316 C48.7830941,76.9655172 52.6299841,74.3129973 52.6299841,73.5702918 C52.6299841,71.9787798 54.7671451,70.3872679 56.0494418,69.3262599 C57.3317384,68.1591512 57.7591707,66.7798408 57.7591707,65.2944297 C57.7591707,64.6578249 57.7591707,63.8090186 56.9043062,63.8090186 C55.4082935,63.8090186 53.0574163,66.2493369 51.5614035,66.7798408 C51.5614035,66.7798408 49.3173844,69.0079576 48.0350877,69.7506631 C47.0733652,70.1750663 37.7767145,77.2838196 37.7767145,81.8461538 C37.7767145,82.3766578 37.8835726,82.9071618 38.0972887,83.4376658 C39.0590112,83.1193634 40.0207337,82.4827586 41.0893142,82.4827586 C41.3248328,82.4827586 41.6180282,82.5972946 41.8417789,82.6580726 L41.8417789,82.6580726 Z M58.400319,72.6153846 C58.507177,72.6153846 58.6140351,72.5092838 58.6140351,72.403183 C58.6140351,72.403183 58.400319,72.1909814 58.2934609,72.1909814 C58.2934609,72.1909814 58.0797448,72.1909814 57.9728868,72.2970822 C58.0797448,72.5092838 57.9728868,72.7214854 58.2934609,72.7214854 L58.400319,72.6153846 Z M67.4298246,59.8832891 L67.1626794,59.8832891 L67.1626794,59.9893899 L67.2695375,60.0954907 C67.3763955,60.0954907 67.3763955,59.9893899 67.3763955,59.8832891 L67.4298246,59.8832891 Z"></path>
</svg>
