<svg viewBox="0 0 40 40" xmlns="http://www.w3.org/2000/svg">
  <path d="M30.0833333,20 C30.0833333,14.4302448 25.5687754,9.91666667 19.9981016,9.91666667 C14.4307347,9.91666667 9.91666667,14.4307347 9.91666667,20 C9.91666667,25.5680711 14.431439,30.0833333 19.9981016,30.0833333 C25.5680711,30.0833333 30.0833333,25.568561 30.0833333,20 Z M32.0833333,20 C32.0833333,26.6728856 26.6728856,32.0833333 19.9981016,32.0833333 C13.3271144,32.0833333 7.91666667,26.6728856 7.91666667,20 C7.91666667,13.325216 13.3271144,7.91666667 19.9981016,7.91666667 C26.6728856,7.91666667 32.0833333,13.325216 32.0833333,20 Z"></path>
  <path d="M24.6955078,20.4723307 L24.8750821,20.5056905 C25.7286066,20.8341471 26.2051141,21.1192946 26.7321931,21.6696296 C27.0177601,21.9693737 27.1602901,22.2017228 27.3542834,22.6412775 C27.3769717,22.6926246 27.2921384,22.6512528 27.4118297,22.6543938 C27.5589941,22.6582558 27.6329943,22.662735 27.7420322,22.6793866 C28.0485629,22.7257526 28.5292993,22.9388398 28.7948142,23.1386081 L28.1935972,23.937694 C28.0556397,23.8338973 27.727893,23.6886231 27.591773,23.668033 C27.5356546,23.6594632 27.4926175,23.6568582 27.3855958,23.6540497 C26.917989,23.6417783 26.6440678,23.5081914 26.439509,23.0452424 C26.288295,22.7026184 26.2035777,22.5645141 26.0090823,22.3603604 C25.6144922,21.9483618 25.2717882,21.7362321 24.6016523,21.4723307 L23.5098307,21.4723307 L23.378272,21.4547126 C23.3530556,21.4478131 23.3530556,21.4478131 23.3282132,21.4409486 C23.3012984,21.4334852 23.3012984,21.4334852 23.2748311,21.4261182 C22.7326188,21.2751893 22.5736248,21.2735676 22.3976968,21.4307604 C22.3949159,21.4332075 22.3858263,21.4430875 22.3589796,21.474342 C22.3360897,21.5010275 22.3360897,21.5010275 22.3035061,21.5372308 C22.1746406,21.676009 22.0706997,21.7086772 21.8511912,21.7494786 C21.8210088,21.7550888 21.7185192,21.7722478 21.7166454,21.7727015 C21.6919399,21.7788197 21.6919399,21.7788197 21.6663435,21.7852441 C21.5083964,21.8247919 21.4167627,21.8419401 21.2950418,21.8441474 C20.9638322,21.8517537 20.6249386,21.7520505 20.4104183,21.5048046 C20.2719282,21.3459483 20.1989733,21.1206191 20.1778465,20.9048844 C20.166807,20.7797703 20.1776419,20.6987832 20.2089587,20.5528971 L20.2121442,20.5380179 C20.2194192,20.5038278 20.2212675,20.4917602 20.221521,20.4812064 L20.2221029,20.4644819 C20.2240986,20.4049789 20.2245421,20.3846541 20.2241903,20.358001 C20.2239172,20.337301 20.2230067,20.3216124 20.2219913,20.3110879 C20.2294133,20.3591678 20.198901,20.3486753 20.0961416,20.3262918 C20.0574661,20.3181273 20.0574661,20.3181273 20.0136516,20.3093634 C20.0022794,20.3070893 20.0022794,20.3070893 19.9905719,20.3047391 C19.8710425,20.2806997 19.7954093,20.2626318 19.7012786,20.2317386 C19.3164717,20.1009545 19.1576988,19.7570729 19.2031532,19.39149 C19.2085919,19.347747 19.2169612,19.3035943 19.2278566,19.2596166 C19.0257964,19.4976262 18.8991429,19.6060795 18.6646274,19.6794673 C18.4675988,19.7425165 18.2734886,19.7382893 18.065384,19.6891841 C17.9813199,19.669348 17.9146192,19.6483391 17.7947179,19.6070064 C17.6638333,19.5618875 17.6196488,19.5486484 17.5834558,19.5435508 L17.1199806,19.4782726 L17.1545562,19.0115017 C17.1600016,18.9379892 17.1491392,18.8090317 17.1222097,18.6349271 C17.1134445,18.5782583 17.103274,18.5181413 17.0903573,18.4456886 C17.0618569,18.2891202 17.0469971,18.2071622 17.0366044,18.1441488 C17.0148393,18.0121825 17.0055521,17.92903 17.0106487,17.841422 C17.0506953,17.192096 17.5161589,16.5525967 18.1327913,16.3836563 C18.6895977,16.2311066 19.1618163,16.165973 19.6143953,16.2138227 C20.160851,16.2714263 20.4533776,16.4831096 20.7013531,16.9056768 C20.7203717,16.9380858 20.7984312,17.0761859 20.8194916,17.1119272 C20.8396193,17.1460857 20.8588045,17.1772499 20.8778865,17.2065616 C20.879049,17.1774788 20.8795841,17.1437112 20.8793918,17.1045214 C20.8791678,17.058896 20.8781586,17.0233704 20.8748969,16.9337066 C20.8694135,16.7850799 20.86817,16.726012 20.8710116,16.6444181 C20.8892164,16.126408 21.0804966,15.7542474 21.4771706,15.2786804 C21.524746,15.2216429 21.6854362,15.0340052 21.7024122,15.0139294 C21.7258733,14.9861205 21.7258733,14.9861205 21.7497232,14.9575239 C21.8179875,14.8760335 21.8179875,14.8760335 21.8855551,14.7958371 C22.0184154,14.638143 22.0767841,14.5682651 22.1466414,14.482446 C22.3655504,14.2114159 22.5855432,14.0420839 22.907888,13.9813044 C23.015987,13.962314 23.1173832,13.9600348 23.2511203,13.9663979 C23.2889888,13.968329 23.2889888,13.968329 23.3234567,13.9703331 C23.32815,13.9706064 23.3326482,13.9708669 23.3369642,13.971115 C23.320195,13.9329167 23.3061144,13.8907196 23.2948879,13.8439373 C23.1581757,13.2604095 23.5154393,12.9729075 24.0234385,12.885431 C24.0629773,12.8786225 24.10022,12.8731631 24.1597622,12.8648106 C24.1821982,12.8615485 24.1821982,12.8615485 24.2009663,12.8585874 C24.2317532,12.8535013 24.2317532,12.8535013 24.2697928,12.8469645 C24.3503757,12.8332084 24.4025561,12.8255391 24.4636053,12.8199812 C24.5739547,12.809935 24.6794391,12.8119174 24.779062,12.829362 C24.7699203,12.8244439 24.7608966,12.8194577 24.7519539,12.81438 C24.4453282,12.6396747 24.1623026,12.4438681 23.7748511,12.1501938 C23.4995458,11.9422186 23.2006724,11.7641825 22.7354044,11.5189339 C22.6709782,11.4854323 22.5994023,11.4458684 22.4720197,11.3749987 C22.2674413,11.2626352 22.1385213,11.2057375 22.0338143,11.1845916 C22.0302006,11.1974534 22.0261582,11.2115775 22.0215676,11.227484 C22.0057417,11.2823211 22.0014797,11.301064 22.0009812,11.2946991 C22.0016942,11.3037141 22.009667,11.332125 22.0391803,11.4134545 C22.0491884,11.4410066 22.0491884,11.4410066 22.0603379,11.4724298 C22.0721699,11.5066142 22.0721699,11.5066142 22.0848378,11.5464562 C22.2020739,11.9297281 22.2029178,12.2081961 21.9305006,12.4968636 C21.6292122,12.8122748 21.0797676,12.8226909 20.7388829,12.5693113 C20.6333553,12.4895792 20.566749,12.4156539 20.4679905,12.287813 L20.452028,12.2671207 C20.3981497,12.1973009 20.3827255,12.1815264 20.3804022,12.1803054 C20.260693,12.117186 20.2081194,12.107254 20.0793037,12.1229632 C19.6996952,12.1691764 19.4624067,12.1752727 19.2048992,12.1103257 C18.7771044,12.0053215 18.4184875,11.5587005 18.4107643,11.1216518 C18.4017365,10.7560256 18.5088465,10.4163614 18.8381284,10.2239513 C19.0067908,10.1275729 19.1819213,10.0931811 19.4124072,10.0811042 C19.4584382,10.0786922 19.4965734,10.0775195 19.5690294,10.0758169 C19.6306898,10.0743341 19.6616364,10.0732819 19.6975009,10.0709054 C19.6826105,9.95217967 19.6920569,9.86116341 19.7420609,9.73199303 C19.8430045,9.474026 20.0398275,9.35242858 20.29603,9.26904575 C20.4450045,9.22235226 20.5812974,9.21589393 20.7464619,9.23066474 C20.7948194,9.23535777 20.7948194,9.23535777 20.8357488,9.23996055 C20.8604403,9.24273183 20.8604403,9.24273183 20.8849529,9.24533172 C20.9066741,9.24770131 20.9236814,9.24903803 20.9769083,9.25272296 C20.9917787,9.25374053 20.9917787,9.25374053 21.0075213,9.25484326 C21.1055913,9.26179494 21.1722198,9.26916145 21.2497374,9.2849564 C21.3325099,9.30217309 21.404254,9.32609532 21.4679731,9.35706194 C21.4194975,9.30556961 21.3735895,9.25244228 21.3306039,9.19790817 C21.122633,8.93321805 20.999029,8.64039428 21.0050364,8.31329886 C21.020195,7.8635943 21.342456,7.75325782 21.6791945,7.78404608 C21.80301,7.79536663 21.9442018,7.83154928 22.0925448,7.88503677 C22.4181979,8.00245635 22.7090832,8.16776085 22.8510073,8.36545081 C22.923937,8.46422906 23.0088935,8.55103857 23.1881203,8.71600749 C23.2142085,8.74000157 23.2142085,8.74000157 23.2408847,8.7645458 C23.2778051,8.79859207 23.2778051,8.79859207 23.3144777,8.83281218 C23.8086765,9.29327049 24.2645414,9.60560725 24.7443601,9.78911192 C24.8146848,9.81609696 24.8768191,9.83855192 25.0053365,9.88398302 C25.0328691,9.8937143 25.0328691,9.8937143 25.0607234,9.90357384 C25.3917636,10.0208566 25.5764568,10.0960225 25.7844719,10.2108941 C26.0632041,10.3675869 26.2403742,10.5426629 26.4497807,10.8257454 C26.4334891,10.8037218 26.5987487,11.030788 26.6438332,11.0890722 C26.9353652,11.4634162 27.3268951,11.463166 27.4887886,11.1604752 L28.3705864,11.6321029 C27.8448065,12.6151486 26.5654714,12.6159661 25.8538706,11.7022251 C25.7972351,11.6290134 25.6213773,11.3873854 25.6458377,11.4204518 C25.5130014,11.2408793 25.4298742,11.1587346 25.2977725,11.0844553 C25.1547277,11.0054735 25.0087678,10.9460712 24.7267766,10.8461657 C24.6995636,10.8365332 24.6995636,10.8365332 24.6720465,10.8268074 C24.535365,10.7784902 24.4673054,10.7538939 24.3866281,10.722936 C24.2564835,10.6731629 24.1289316,10.6168373 24.0031956,10.5538323 C23.9793628,10.6118507 23.9482909,10.670237 23.9094702,10.7287167 C23.856289,10.8088685 23.7980254,10.8748545 23.735001,10.9280717 C23.9770905,11.0694845 24.1794935,11.2026067 24.3782635,11.352765 C24.7345189,11.6227929 24.9862296,11.7969348 25.2463572,11.9451477 C25.2655318,11.956035 25.2974331,11.9709937 25.3438996,11.990421 C25.3811546,12.0059971 25.5340489,12.0665228 25.5568094,12.0757638 C25.8855378,12.209231 26.0775612,12.3207331 26.2270557,12.533766 C26.3461888,12.7045234 26.388737,12.8922906 26.388737,13.1011719 C26.388737,13.519021 26.2651034,13.9110918 25.9131134,14.1170396 C25.5901153,14.3044582 25.1341724,14.3768913 24.8019926,14.1800261 C24.7979243,14.300508 24.7618703,14.4294071 24.6865851,14.5640022 C24.5007123,14.8912432 24.198543,14.9856687 23.8004132,14.9877655 C23.7326608,14.9881223 23.6746235,14.9860469 23.5789373,14.9810421 C23.4957158,14.9766648 23.4721951,14.975651 23.447526,14.975651 C23.3941007,14.975651 23.356734,14.9739659 23.2653128,14.9686413 C23.2329371,14.9667629 23.2329371,14.9667629 23.2035947,14.9652679 C23.1379018,14.9621423 23.0991802,14.9630127 23.087105,14.9650938 C23.0551222,14.9711283 23.008225,15.0072258 22.923393,15.1122503 C22.8475938,15.205375 22.7868074,15.2781475 22.6503101,15.4401583 C22.5831988,15.5198143 22.5831988,15.5198143 22.5179832,15.5976606 C22.4918356,15.6290108 22.4918356,15.6290108 22.466009,15.6596228 C22.4452241,15.6842031 22.2876585,15.8681921 22.2450994,15.9192157 C21.9775525,16.2399739 21.8791116,16.4315037 21.8704002,16.6793816 C21.8687116,16.7278687 21.8696797,16.7738532 21.874217,16.8968384 C21.8777363,16.9924728 21.8790872,17.0400291 21.8793797,17.0996128 C21.8820425,17.6420724 21.7466763,18.0319006 21.3023684,18.2651093 C20.8502522,18.5042092 20.42293,18.2731949 20.1412741,17.8976521 C20.0748668,17.808746 20.0174674,17.7206206 19.9579374,17.6195929 C19.9309271,17.5737539 19.8522785,17.4346116 19.8388901,17.4117968 C19.7427078,17.2478957 19.7184343,17.2303304 19.5094087,17.2082964 C19.2038427,17.1759898 18.8442406,17.2255901 18.3970264,17.3481146 C18.2151313,17.3979488 18.0236812,17.6609796 18.0088581,17.9012135 C18.0090602,17.898005 18.0162217,17.941405 18.0748347,18.2701777 C18.0889866,18.3495583 18.1003623,18.4167991 18.1104582,18.4820708 C18.120535,18.5472197 18.1290705,18.608634 18.1359306,18.6668669 C18.2150299,18.6939842 18.2559188,18.7066811 18.295041,18.7159125 C18.3411379,18.7267897 18.3594009,18.7271874 18.3628947,18.7260801 C18.3626419,18.7261592 18.3967022,18.6950646 18.4936578,18.5790067 L18.5008192,18.5704342 C18.6236734,18.4233939 18.689781,18.3526288 18.7992333,18.2695586 C19.1700765,17.9938875 19.6754555,17.9601956 20.088964,18.1831137 C20.3584347,18.3305599 20.5292707,18.5424826 20.5122047,18.8430644 C20.500131,19.0557173 20.4962019,19.0617427 20.2808173,19.3414876 C20.2873092,19.3446267 20.2965148,19.3465698 20.3084339,19.3490857 C20.7810204,19.4520254 21.0589753,19.5952356 21.1805534,20.018929 C21.2108363,20.1230265 21.2225485,20.2269898 21.2241033,20.3448052 C21.2247299,20.3922862 21.2238968,20.4304646 21.2214967,20.4992966 C21.2212047,20.5076606 21.2212047,20.5076606 21.2211648,20.5061289 C21.2198902,20.5889754 21.2101316,20.6526886 21.1902474,20.7461383 L21.1866849,20.7627815 C21.1762733,20.8112829 21.174642,20.8222892 21.1736487,20.8133841 C21.1761897,20.8363712 21.1887176,20.8758028 21.1649659,20.8485603 C21.1466615,20.8274637 21.2092758,20.84587 21.273104,20.8443864 L21.274927,20.8443505 C21.299219,20.8439167 21.3367733,20.8368938 21.4234551,20.8151899 C21.4486255,20.8088702 21.4486255,20.8088702 21.4741098,20.802559 C21.5138273,20.7926195 21.632559,20.7721248 21.6627581,20.7671477 C21.6382398,20.7794976 21.6253197,20.7979747 21.5691439,20.8584769 C21.581134,20.8451531 21.581134,20.8451531 21.6004099,20.82275 C21.6578947,20.7558274 21.6874047,20.7237514 21.7342173,20.6825756 C22.2507057,20.2210328 22.6907685,20.2255212 23.5429934,20.4627444 C23.5614183,20.4678729 23.5668904,20.469396 23.5774678,20.4723307 L24.6955078,20.4723307 Z M21.1898046,10.5101981 C21.1305868,10.4524987 21.0835441,10.3931958 21.0374184,10.3239352 C21.0115244,10.2840349 21.0085056,10.2793833 20.9945586,10.2570605 C20.9787957,10.2555156 20.9599116,10.2539776 20.9368138,10.2523403 C20.9231297,10.2513817 20.9231297,10.2513817 20.9085993,10.2503872 C20.8486671,10.246311 20.8160337,10.2437461 20.7795291,10.2397545 C20.7536431,10.2370075 20.7506878,10.2366939 20.7321909,10.2346173 C20.7329176,10.2760011 20.7299808,10.3171025 20.7225914,10.3609711 C20.6990382,10.6941419 20.4783264,10.9130189 20.1918184,11.0064618 C20.0742086,11.0448195 19.9969288,11.0543589 19.8853837,11.0587927 C19.8811819,11.0592224 19.8771163,11.0596344 19.8731778,11.0600294 C19.8776417,11.0600357 19.9077675,11.054031 20.0070722,11.0342375 L19.9013007,11.0571486 C19.8957834,11.0577234 19.8904832,11.0582711 19.8853837,11.0587927 C19.882117,11.0589225 19.8788209,11.059048 19.8754936,11.0591697 C19.8689806,11.0608403 19.8694626,11.0608176 19.8701137,11.0607554 C19.8284674,11.0645128 19.8001356,11.0667946 19.7747727,11.0678051 C19.7230292,11.0718634 19.6813278,11.0734055 19.5930706,11.0755279 C19.5248289,11.077166 19.4980038,11.0779909 19.4647333,11.0797342 C19.4442236,11.0808089 19.4259616,11.0821461 19.410126,11.0835106 C19.4103426,11.0884274 19.4103787,11.0941111 19.4105337,11.1004617 C19.4102798,11.0861146 19.4552216,11.1420851 19.4463481,11.1399173 C19.5489794,11.1657983 19.6983136,11.1619616 19.958353,11.1303047 C20.2910039,11.0897375 20.5483168,11.1383482 20.8461113,11.2953679 C20.907645,11.3276886 20.958951,11.3607704 21.0060565,11.398521 C21.0030903,11.3675478 21.0014486,11.3351979 21.0009766,11.3 C21.0009766,11.1778635 21.0179518,11.0985992 21.0607791,10.9502018 C21.074598,10.902319 21.0790106,10.8856637 21.0844791,10.8580266 C21.1106196,10.7396255 21.1558998,10.63073 21.218622,10.536507 C21.209008,10.5279751 21.1994041,10.5192065 21.1898046,10.5101981 Z M21.7900563,9.64706844 C21.6741761,9.55831591 21.5658417,9.46102109 21.4679731,9.35706194 C21.6012971,9.42185565 21.6994873,9.51748983 21.7900563,9.64706844 Z M21.834254,9.71378182 C21.8556579,9.74794936 21.8556579,9.74794936 21.869735,9.7696347 C21.8798186,9.78477576 21.8850489,9.79138976 21.8808176,9.78741841 C21.8931156,9.79896672 21.8839677,9.79371753 21.8684891,9.7898036 C21.8657264,9.78910503 21.8784759,9.78987617 21.9367685,9.78983704 C21.9575751,9.78982307 21.9768139,9.78989273 21.9949089,9.79008704 C21.9245356,9.74541796 21.8560715,9.69762936 21.7900563,9.64706844 C21.8049543,9.66838316 21.819646,9.69061635 21.834254,9.71378182 Z M25.2788406,13.1225087 C25.3209224,13.173942 25.3502594,13.2199087 25.3724806,13.2677476 C25.3841628,13.2626105 25.3962589,13.259006 25.4044215,13.2555549 C25.3644511,13.2728117 25.388737,13.1914906 25.388737,13.1011719 C25.388737,13.0784012 25.3892308,13.0805806 25.4077138,13.1070696 C25.4085844,13.1083102 25.3315903,13.0636021 25.1806228,13.0023077 C25.1763949,13.0005911 25.1603749,12.9942187 25.1385231,12.9855218 C25.1879363,13.0237821 25.2347801,13.0691988 25.2788406,13.1225087 Z"></path>
  <path d="M14.4427572,18.8067324 C14.2718682,18.7171463 14.1343384,18.5811306 13.9844847,18.3900749 C13.9267857,18.3165119 13.7911014,18.1283171 13.7920668,18.1293532 C13.6496948,17.9760295 13.5796226,17.8474261 13.4701729,17.5935163 C13.4595735,17.5689139 13.4595735,17.5689139 13.4495326,17.5457599 C13.3955046,17.421649 13.362486,17.3626218 13.3205797,17.3154325 C13.2194843,17.2018889 13.1039621,17.0851175 12.8336961,16.8158996 C12.1531907,16.1278493 11.8341808,15.6432464 11.8159428,14.982118 C11.8117761,14.8300347 11.8156565,14.7124159 11.8295809,14.445171 C11.83221,14.3946855 11.83221,14.3946855 11.834682,14.3451821 C11.8479942,14.0728753 11.8465283,13.9111887 11.8247237,13.7639939 C11.8179287,13.7172129 11.7487656,13.6462333 11.5339389,13.510337 C11.464655,13.4669399 11.464655,13.4669399 11.3857169,13.4174432 C11.2156736,13.3077059 11.104899,13.2309991 11.0016642,13.1512912 C10.9737485,13.1295913 10.9737485,13.1295913 10.9465463,13.1079066 C10.8839399,13.0577116 10.9188059,13.0871967 10.6915558,12.8937821 L11.3396942,12.1322596 C11.5518107,12.3127938 11.5214022,12.2870783 11.5720755,12.3277058 C11.5924697,12.3439629 11.5924697,12.3439629 11.6128021,12.3597671 C11.6907428,12.4199453 11.7796493,12.4815094 11.9241568,12.5747913 C11.9917408,12.6171162 11.9917408,12.6171162 12.0685401,12.6652325 C12.5152268,12.9478003 12.7519521,13.1907425 12.814133,13.6188481 C12.8478464,13.846414 12.8497883,14.0606045 12.8334892,14.3940104 C12.8308859,14.4461407 12.8308859,14.4461407 12.8282262,14.4972039 C12.8157091,14.7374404 12.8123795,14.8383634 12.8155651,14.9546366 C12.8244733,15.2775602 13.0349851,15.5973453 13.5446904,16.1127019 C13.8088515,16.3754216 13.9459551,16.5140077 14.067869,16.650934 C14.1420244,16.7344367 14.1989404,16.8153385 14.2515705,16.9095605 C14.3832207,16.7564831 14.5929541,16.6939414 14.7954707,16.7362268 C14.9076023,16.7596398 15.0029593,16.8071054 15.1074217,16.875286 C15.2205661,16.9491331 15.3605099,17.0641956 15.4305738,17.140904 C15.5663407,17.3025313 15.6587182,17.4836882 15.7515653,17.7293597 C15.7746695,17.7904928 15.8440543,17.9854156 15.8423093,17.9806231 C15.9870759,18.3783481 16.0681862,18.4784719 16.334996,18.6027395 L16.6580784,18.7532162 L16.621211,19.1077106 C16.629698,19.0261045 16.66094,19.057434 16.8031949,19.1385451 C16.859632,19.1706013 16.920163,19.190469 17.0795867,19.2303274 C17.1809838,19.2556782 17.2226451,19.2666051 17.2827264,19.2847483 C17.3605932,19.3082624 17.4323515,19.3341914 17.5062141,19.3669721 C17.5476528,19.3857182 17.599347,19.4016111 17.6783281,19.4198818 C17.7223542,19.4298251 17.7223542,19.4298251 17.7716421,19.4404501 C17.9896066,19.4874868 18.0979729,19.5179395 18.2368407,19.5855966 C18.2550485,19.5945 18.2550485,19.5945 18.2730344,19.6037705 C18.5728422,19.7604028 18.6895589,19.9654268 18.7179966,20.2456125 C18.7352437,20.2431588 18.7626387,20.2413887 18.8036907,20.2386141 C18.8274064,20.2369653 18.8274064,20.2369653 18.8529368,20.2350881 C19.0496764,20.2206036 19.136476,20.2186791 19.2631165,20.2384938 C19.7731894,20.3178385 19.9994018,20.5678691 20.2138119,21.0556064 C20.2358884,21.1059996 20.2358884,21.1059996 20.2559421,21.1508615 C20.3089345,21.267807 20.346065,21.3270091 20.3941885,21.3714903 C20.4029993,21.379807 20.458748,21.3976056 20.5805988,21.4099425 C20.6201514,21.413947 20.6526293,21.4163907 20.7351273,21.4219611 C20.817552,21.4275826 20.8585763,21.4308331 20.9096299,21.4365068 C20.921392,21.4377808 20.921392,21.4377808 20.9381345,21.4394078 C20.9810492,21.4434244 20.9810492,21.4434244 21.0414611,21.4507898 C21.2180678,21.4750373 21.3633009,21.5252237 21.4945385,21.6440002 C21.7586916,21.8779644 21.7959688,22.1923719 21.6798468,22.4882537 C21.6503929,22.5633031 21.6180238,22.6247151 21.5672331,22.7110298 C21.5173476,22.7958064 21.5151626,22.7996501 21.5093365,22.8128498 C21.4267619,22.9960151 21.3648166,23.2022332 21.3245307,23.4238051 C21.1982408,24.1174575 21.2824614,24.6599263 21.6030543,25.0008556 C21.6918235,25.0954009 21.7900635,25.1866338 21.9193754,25.2969099 C21.9759826,25.3451841 22.1896413,25.5228019 22.1741978,25.509875 C22.7357708,25.9799386 23.0122803,26.3285839 23.1578097,26.910735 C23.2930139,27.4387431 23.2776413,27.9398271 23.1564993,28.6331181 C23.1384354,28.7364975 23.1235453,28.8159775 23.0880307,29.0015003 C23.0685996,29.1030266 23.0685996,29.1030266 23.0493984,29.2053498 C23.0200491,29.3590839 22.9977893,29.4166681 22.8578945,29.7462906 C22.8254693,29.8226913 22.8043519,29.8746 22.7859809,29.9240812 C22.7360852,30.0584723 22.7202033,30.097892 22.7153966,30.1095356 C22.7232383,30.1192571 22.8077323,30.1082358 22.9599318,30.0353041 C23.0897014,29.9731205 23.2368421,29.8789714 23.3959679,29.7589627 C23.524481,29.6620415 23.6175903,29.5840756 23.792763,29.4315728 C24.0184179,29.2346171 24.2097057,29.0947435 24.6319205,28.8043494 L24.6408022,28.7982408 C25.4143712,28.2661928 25.709191,28.0058621 25.937135,27.5819212 C25.976001,27.5090091 25.976001,27.5090091 26.0157255,27.4334778 L26.0282541,27.409649 C26.3608167,26.777234 26.559645,26.4871899 26.9395883,26.2078729 C27.0841694,26.1010086 27.204829,26.0318362 27.4527098,25.90278 L27.4643691,25.8967103 C27.5783085,25.837396 27.6294257,25.8100601 27.6893493,25.7754766 C27.9785318,25.6103878 28.2057394,25.2659541 28.4886086,24.6301029 L29.4022768,25.0365637 C29.0356624,25.8606628 28.7206471,26.3382077 28.1872024,26.6427347 C28.1126879,26.6857471 28.0528138,26.717766 27.9261248,26.7837174 L27.9145083,26.7897648 C27.7121055,26.8951435 27.6231496,26.9461406 27.532944,27.0128123 C27.3141258,27.1736786 27.1769473,27.37379 26.9133381,27.8750804 L26.9008445,27.8988426 C26.8603665,27.9758122 26.8603665,27.9758122 26.8181138,28.0550767 C26.4894325,28.6663743 26.1098844,29.0015214 25.2074896,29.6221736 L25.1986102,29.6282807 C24.8079403,29.8969786 24.6374675,30.0216319 24.4498585,30.1853799 C24.2572669,30.3530478 24.1508248,30.4421781 23.9980989,30.5573601 C23.790175,30.714171 23.5899255,30.8423022 23.3920653,30.9371138 C22.9794189,31.1348476 22.5892007,31.1846545 22.2370064,30.9936568 C21.6725564,30.6878344 21.6238935,30.1810094 21.8485077,29.5760238 C21.8733588,29.5090886 21.8994557,29.44494 21.9373679,29.3556105 C22.0374008,29.1199115 22.0576493,29.0675304 22.0666808,29.0202553 C22.0862499,28.9159644 22.0862499,28.9159644 22.1058647,28.8134848 C22.1403545,28.6333151 22.1546047,28.5572504 22.1714245,28.4609914 C22.2703002,27.8951296 22.2817817,27.5208782 22.1883662,27.1560334 C22.1052855,26.8237106 21.946192,26.6231127 21.5323338,26.2766935 C21.5522745,26.2933848 21.3327371,26.1108799 21.2704944,26.0577999 C21.1153736,25.925514 20.9916386,25.8106046 20.8742916,25.6856218 C20.295281,25.0698829 20.1632408,24.2194057 20.3406822,23.2448021 C20.3943684,22.9495279 20.4783948,22.6685449 20.5920574,22.4144536 C20.5488222,22.4113072 20.516244,22.4085391 20.4798677,22.4048561 C20.1577583,22.3722438 19.9156938,22.2949616 19.7117587,22.102421 C19.5491593,21.9522655 19.4484473,21.7916868 19.3450933,21.5636017 C19.3200977,21.5076818 19.3200977,21.5076818 19.2983624,21.4580394 C19.2074107,21.2511435 19.1976305,21.2403336 19.1089721,21.2265421 C19.0856149,21.2228875 19.0424027,21.2238456 18.9263611,21.2323889 C18.8996977,21.2343508 18.8996977,21.2343508 18.8711238,21.2363379 C18.4435602,21.2652356 18.1607072,21.2066069 17.9186227,20.895668 C17.8017552,20.7466023 17.7547913,20.6206706 17.7338807,20.4599469 C17.6952684,20.4482045 17.6425029,20.4356017 17.5606984,20.4179483 C17.509613,20.4069469 17.509613,20.4069469 17.4529499,20.3941531 C17.3153121,20.3623134 17.2058659,20.3286651 17.0973799,20.2795734 C17.0676902,20.2664028 17.0341667,20.2542895 16.9936421,20.242052 C16.954382,20.2301963 16.9224274,20.2218152 16.8370375,20.2004665 C16.5923169,20.1392827 16.4691284,20.0988492 16.308591,20.0076631 C15.9685179,19.8137618 15.7436065,19.6313443 15.6585264,19.3723049 C15.4283009,19.2274969 15.2620883,19.053106 15.12303,18.8122708 C14.9086999,18.9317194 14.6615997,18.9214575 14.4427572,18.8067324 Z"></path>
  <path d="M31.1917259,17.5645437 L31.9016819,18.2687896 C31.3219467,18.8532255 31.1490911,19.9199644 31.5601814,20.5245878 C31.7401477,20.7898013 31.9212483,20.9398038 32.106969,20.9828128 L31.8813607,21.9570309 C31.4125956,21.8484748 31.0414195,21.541036 30.7329633,21.0864686 C30.0355453,20.0607207 30.2932598,18.4702946 31.1917259,17.5645437 Z"></path>
  <path d="M36.5776183,20.5747126 C36.6221425,20.5747126 36.6666667,20.7073386 36.6666667,20.8399646 C36.6666667,21.1494253 35.8207071,21.8567639 35.4645136,21.8567639 C35.1528442,21.8567639 34.8411749,21.7241379 34.5295056,21.7241379 C32.748538,21.7241379 31.7244817,22.2988506 29.5873206,23.7577365 C29.4092238,24.1114058 28.9194577,25.9681698 28.4296917,25.9681698 C28.2961191,25.9681698 28.0734981,25.8797524 27.9399256,25.8797524 C27.7618288,25.8797524 25.9363371,27.2944297 25.9363371,28.0901857 C25.9363371,28.1343943 25.9363371,28.2670203 26.0253854,28.311229 C25.6691919,29.2838196 25.2684742,30.2122016 24.3334662,31.3174182 L24.3779904,31.3174182 C24.1998937,31.5384615 23.8437002,31.8479222 23.8437002,32.0247569 C23.8437002,32.1573828 23.9327485,32.2900088 24.0663211,32.2900088 C24.2889421,32.2458002 24.5560872,32.1131742 24.7787081,32.1131742 C24.8677565,32.1131742 24.9122807,32.1573828 24.9568049,32.2458002 C24.9568049,32.9089302 21.4839181,34.8541114 21.5284423,34.8541114 C21.1722488,34.8541114 20.9496279,34.5004421 20.6824827,34.5004421 C19.7029506,34.7656941 18.1446039,36.6666667 14.9833865,36.6666667 C13.5586124,36.6666667 12.4455077,35.5172414 12.4455077,33.7488948 C12.4455077,32.5110522 14.404572,31.4500442 14.8052897,30.5216622 C15.33958,29.3280283 17.1205476,27.5596817 18.5898458,26.6312997 C19.4803296,26.0565871 20.5934343,25.5260831 21.3058214,24.7745358 C21.8846358,24.1556145 23.3094099,24.1556145 23.7101276,23.4040672 C24.6006114,22.9177719 25.3575226,22.6967286 25.3575226,21.5473033 C25.3575226,20.9725906 25.0903775,20.0442087 24.2889421,20.0442087 C23.8437002,20.0442087 23.3984583,20.132626 22.9532164,20.132626 C22.7751196,20.132626 22.641547,20.132626 22.4634503,20.0884173 C21.6620149,20.530504 20.6379585,20.2210433 19.9255715,20.7515473 C17.8329346,21.9451813 14.8943381,23.3598585 13.0243222,23.3598585 C13.0243222,23.3598585 8.92809676,23.2714412 8.92809676,21.2378426 C8.92809676,21.1052166 8.97262095,20.928382 8.97262095,20.795756 C8.97262095,20.3094607 8.75,19.9115827 8.75,19.33687 C8.75,18.3642794 9.68500797,18.1874447 9.77405635,17.3032714 C9.77405635,15.9770115 10.4864434,15.0486295 11.5104997,14.2528736 C11.7776449,14.0760389 11.9557416,13.8107869 12.0893142,13.5013263 C12.4009835,12.749779 13.6031366,12.351901 13.6031366,11.821397 C13.6031366,11.7329797 13.5586124,11.6445623 13.5140883,11.5119363 C13.6031366,11.3351017 13.692185,11.0698497 13.8702818,10.9814324 C15.8293461,9.87621574 17.3876927,7.79840849 19.0796119,6.91423519 C19.8365231,6.51635721 21.1277246,5.19009726 21.5284423,5.19009726 C22.2853535,5.14588859 22.6860712,4.61538462 23.2203615,4.21750663 C23.5320308,3.90804598 24.2889421,3.59858532 24.7787081,3.33333333 C26.0253854,3.77541998 28.1625465,5.32272325 28.1625465,6.20689655 C28.1625465,6.69319187 27.7173046,6.69319187 27.3611111,6.69319187 C27.0494418,6.69319187 26.7822967,6.56056587 26.5151515,6.56056587 C24.7341839,6.56056587 22.6860712,7.70999116 21.2612972,8.77099912 C20.5934343,9.25729443 20.0591441,9.78779841 19.3022329,10.0530504 C19.3022329,10.0972591 17.3876927,11.4677277 16.8534024,12.1750663 C15.9629187,13.3244916 14.5381446,13.7665782 14.0038543,15.0928382 L14.0483785,15.1370469 C14.0038543,15.1370469 13.914806,15.0928382 13.8702818,15.0928382 C13.692185,15.3580902 13.4695641,15.6233422 13.2914673,15.8443855 C13.3359915,16.0212202 13.4250399,16.1980548 13.4250399,16.3748895 C13.4250399,16.8611848 12.4900319,16.9938108 12.4900319,17.7895668 C12.4900319,18.2316534 11.8666932,18.5853227 11.8666932,18.9832007 C11.8666932,19.3810787 12.1783626,20.265252 12.5345561,20.265252 C15.9183945,19.602122 19.6584264,17.6569408 23.3984583,17.6569408 C23.9327485,17.6569408 24.4225146,17.7011494 24.9568049,17.7453581 C25.4910952,17.7453581 26.0699096,18.2316534 26.6932483,18.3642794 C27.1830144,18.4526967 27.2275385,19.1158267 27.6727804,19.1158267 C28.9194577,19.204244 28.6968368,20.5747126 29.9880383,20.5747126 C31.3682881,20.5747126 33.0156831,20.0884173 34.3514088,20.0884173 C34.9302233,20.0884173 35.8207071,20.3536693 36.5776183,20.5747126 Z M21.9959463,32.5552608 L22.0182084,32.5552608 C21.9736842,32.5552608 21.9736842,32.5994695 21.9736842,32.5994695 L22.0182084,32.6436782 C22.0627326,32.6436782 22.0627326,32.5994695 22.0627326,32.5552608 L22.1072568,32.5552608 C22.1072568,32.5110522 22.0627326,32.5110522 22.0627326,32.5110522 L22.0182084,32.5552608 L21.9959463,32.5552608 Z M17.4340745,34.4408636 C17.5214445,34.239356 19.9303235,33.5101578 20.1036683,32.8647215 C20.3262892,32.0689655 21.92916,30.9637489 21.92916,30.6542882 C21.92916,29.9911583 22.8196438,29.3280283 23.3539341,28.8859416 C23.8882243,28.3996463 24.0663211,27.8249337 24.0663211,27.2060124 C24.0663211,26.9407604 24.0663211,26.5870911 23.7101276,26.5870911 C23.0867889,26.5870911 22.1072568,27.6038904 21.4839181,27.8249337 C21.4839181,27.8249337 20.5489102,28.7533156 20.0146199,29.0627763 C19.6139022,29.239611 15.7402977,32.2015915 15.7402977,34.1025641 C15.7402977,34.3236074 15.7848219,34.5446508 15.8738703,34.7656941 C16.274588,34.6330681 16.6753057,34.3678161 17.1205476,34.3678161 C17.2186803,34.3678161 17.3408451,34.4155394 17.4340745,34.4408636 L17.4340745,34.4408636 Z M24.3334662,30.2564103 C24.3779904,30.2564103 24.4225146,30.2122016 24.4225146,30.1679929 C24.4225146,30.1679929 24.3334662,30.0795756 24.2889421,30.0795756 C24.2889421,30.0795756 24.1998937,30.0795756 24.1553695,30.1237843 C24.1998937,30.2122016 24.1553695,30.3006189 24.2889421,30.3006189 L24.3334662,30.2564103 Z M28.0957602,24.9513705 L27.9844498,24.9513705 L27.9844498,24.9955791 L28.028974,25.0397878 C28.0734981,25.0397878 28.0734981,24.9955791 28.0734981,24.9513705 L28.0957602,24.9513705 Z"></path>
</svg>
